<svg version="1.1" id="Layer_1" xmlns="http://www.w3.org/2000/svg" xmlns:xlink="http://www.w3.org/1999/xlink" x="0px" y="0px"
	 width="100%" viewBox="0 0 1024 1024" enable-background="new 0 0 1024 1024" xml:space="preserve">
<path fill="#000000" opacity="1.000000" stroke="none" 
	d="
M320.000000,347.715332 
	C332.100311,348.112183 343.802460,346.454895 355.257782,349.718781 
	C376.247314,355.699158 390.335663,374.170837 390.338562,395.951111 
	C390.347809,464.768341 390.366669,533.585571 390.328857,602.402832 
	C390.314331,628.830322 371.736664,649.841309 345.453400,653.483582 
	C342.478607,653.895813 339.537140,654.308167 336.526733,654.307068 
	C268.209412,654.282471 199.891617,654.416504 131.575134,654.172180 
	C114.594688,654.111450 100.024834,647.691833 89.506966,633.859009 
	C82.574516,624.741699 78.777550,614.159607 78.752266,602.765198 
	C78.601799,534.948181 78.607109,467.130219 78.817444,399.313385 
	C78.908669,369.900085 101.692734,347.681000 131.047318,347.686249 
	C193.864883,347.697540 256.682434,347.707031 320.000000,347.715332 
M272.041260,415.381683 
	C232.061234,415.196930 192.084778,415.482513 152.111435,416.248260 
	C144.202362,416.399811 143.354385,417.198456 143.353241,425.323242 
	C143.345932,476.968719 143.345657,528.614197 143.352951,580.259644 
	C143.354004,587.696899 144.314087,588.647766 151.649811,588.656250 
	C190.800247,588.701355 229.951355,588.642273 269.100464,588.893005 
	C275.236877,588.932251 279.802673,587.129333 284.094818,582.751099 
	C300.300629,566.220459 316.856323,550.033508 333.133148,533.571716 
	C342.027496,524.576233 351.342407,515.987427 359.593750,506.357910 
	C362.728851,502.699219 362.399841,499.548981 358.944641,496.400299 
	C356.113831,493.820587 353.332031,491.182800 350.612640,488.485901 
	C327.313751,465.379883 304.016876,442.271729 280.775940,419.107452 
	C278.533295,416.872192 276.137146,415.373352 272.041260,415.381683 
z"/>
<path fill="#000000" opacity="1.000000" stroke="none" 
	d="
M451.775696,579.936768 
	C451.805573,560.449463 451.417847,541.442383 451.948700,522.461121 
	C453.057465,482.814606 452.523621,443.166992 452.573914,403.520294 
	C452.579803,398.859985 454.144592,397.634430 458.641815,397.546204 
	C492.624054,396.879272 526.601562,397.750305 560.579590,397.569885 
	C564.840332,397.547272 566.546448,398.704285 566.395447,403.197968 
	C566.110291,411.686005 566.353699,420.191132 566.337280,428.689087 
	C566.325256,434.896698 566.002014,435.273712 559.893921,435.299286 
	C542.564880,435.371826 525.235291,435.328674 507.906372,435.425201 
	C493.348877,435.506287 493.348907,435.564819 493.348206,449.918945 
	C493.347900,456.084167 493.617981,462.264954 493.262756,468.409637 
	C492.987854,473.165588 494.528076,474.799408 499.410095,474.742798 
	C517.402954,474.533966 535.400452,474.700928 553.395996,474.764099 
	C560.325989,474.788422 560.337219,474.834198 560.345032,481.692352 
	C560.354126,489.690491 560.348999,497.688629 560.334473,505.686737 
	C560.322327,512.352722 560.312256,512.372803 553.838928,512.380188 
	C536.842896,512.399475 519.846863,512.390686 502.850830,512.410828 
	C493.353821,512.422058 493.352356,512.437988 493.349915,521.631042 
	C493.347839,529.462585 493.339783,537.294067 493.353149,545.125610 
	C493.364227,551.622925 493.377472,551.708984 500.103790,551.621887 
	C521.090576,551.350220 542.076050,550.980774 563.062805,550.707581 
	C569.626709,550.622131 569.886780,550.855103 569.976624,557.320984 
	C570.099243,566.150574 570.095398,574.982849 570.053711,583.813538 
	C570.024841,589.919250 569.541870,590.352417 563.468750,590.348999 
	C529.476746,590.330200 495.484680,590.300354 461.492645,590.270996 
	C451.815002,590.262634 451.815002,590.257507 451.775696,579.936768 
z"/>
<path fill="#000000" opacity="1.000000" stroke="none" 
	d="
M889.418457,581.639587 
	C890.845886,584.063416 892.860718,585.769775 893.061523,588.394714 
	C891.778564,590.380188 889.811768,589.993103 888.051025,590.004761 
	C876.221130,590.082947 864.389221,590.011841 852.561707,590.209961 
	C849.283203,590.264893 847.466064,588.960754 845.795532,586.254883 
	C833.984863,567.123413 821.950012,548.132385 809.076111,529.689758 
	C807.861389,527.949707 806.475830,526.328979 805.245911,524.750793 
	C802.383240,525.534973 801.694641,527.805969 800.626038,529.553162 
	C789.244263,548.163757 777.869263,566.779785 766.714905,585.526733 
	C764.954773,588.484802 763.045288,589.846191 759.658386,589.825378 
	C747.662415,589.751587 735.665405,589.851501 723.668823,589.856628 
	C722.356323,589.857178 720.966125,589.896057 719.992554,588.555847 
	C719.472046,585.988098 721.359741,584.275391 722.528503,582.357666 
	C739.867737,553.905823 758.244263,526.123840 776.775146,498.441132 
	C781.613098,491.213898 781.475830,491.219543 776.686340,484.115845 
	C758.812317,457.604858 740.986633,431.061157 723.155640,404.521210 
	C721.968323,402.754120 720.886780,400.916077 719.921082,399.374298 
	C720.695801,397.480652 721.989319,397.691528 723.096619,397.673401 
	C735.919739,397.462952 748.745239,397.365662 761.565552,397.051971 
	C765.315186,396.960205 767.674988,398.269379 769.659973,401.548218 
	C780.181702,418.928955 790.907776,436.186127 801.598022,453.464447 
	C802.809448,455.422577 804.240356,457.244965 805.944885,459.662659 
	C811.298279,453.371582 815.095825,446.568634 819.269897,440.085205 
	C827.382874,427.483795 835.199585,414.688660 842.960022,401.865387 
	C844.799377,398.826141 846.861267,397.488129 850.536133,397.545746 
	C862.362061,397.731079 874.194092,397.524719 886.023804,397.498657 
	C886.804993,397.496948 887.586731,397.740204 889.109741,397.992218 
	C887.680969,400.482361 886.570007,402.624939 885.272888,404.648132 
	C867.385559,432.547546 850.601562,461.153229 831.733154,488.421326 
	C829.602051,491.501038 830.963806,493.563873 832.538940,496.040039 
	C850.864136,524.848572 869.932739,553.161865 889.418457,581.639587 
z"/>
<path fill="#000000" opacity="1.000000" stroke="none" 
	d="
M606.999878,445.726654 
	C611.165588,445.727386 614.832031,445.717926 618.498413,445.732697 
	C625.319153,445.760162 625.326599,445.770752 625.347656,452.821686 
	C625.356079,455.641632 625.348999,458.461609 625.348999,461.581543 
	C628.025452,461.488129 628.890198,459.468262 630.125854,458.137054 
	C648.601196,438.233551 682.978638,436.295593 702.506531,454.225281 
	C712.080872,463.016022 716.497925,474.354523 717.258667,487.078644 
	C717.705505,494.551636 717.277161,502.073608 717.360229,509.572235 
	C717.633301,534.228699 717.964233,558.884460 718.263428,583.540649 
	C718.338440,589.718872 717.992310,590.149902 711.908142,590.219849 
	C702.743042,590.325256 693.566223,590.054626 684.414551,590.432739 
	C679.495544,590.635925 678.587341,588.507324 678.606384,584.219543 
	C678.729126,556.555176 678.174500,528.877441 678.879700,501.230621 
	C679.202759,488.566406 667.035339,475.715820 652.768921,476.147888 
	C638.327942,476.585205 626.452881,487.320526 626.396423,501.315979 
	C626.285461,528.813843 626.355591,556.312378 626.339417,583.810669 
	C626.335571,590.356323 626.315002,590.367004 619.651245,590.376404 
	C610.985107,590.388611 602.315918,590.246460 593.654175,590.441528 
	C589.458191,590.535950 587.588928,589.129700 587.607849,584.722168 
	C587.776001,545.558960 587.796204,506.395203 587.941711,467.231934 
	C587.962769,461.574738 588.602417,455.919220 588.604492,450.262787 
	C588.605835,446.652313 590.244141,445.638062 593.502869,445.732422 
	C597.831848,445.857788 602.167725,445.740479 606.999878,445.726654 
z"/>
<path fill="#000000" opacity="1.000000" stroke="none" 
	d="
M902.655640,515.999878 
	C902.881165,494.536224 902.137878,473.562317 903.554382,452.607544 
	C903.792908,449.079071 904.574097,447.521851 908.385864,447.599731 
	C918.203552,447.800385 928.029907,447.786285 937.848755,447.619751 
	C941.428284,447.559082 942.381653,449.031982 942.375977,452.364441 
	C942.300720,496.645508 942.282654,540.926819 942.371582,585.207825 
	C942.379578,589.185852 940.904602,590.432800 937.062012,590.324463 
	C928.244934,590.075745 919.418579,590.156677 910.595947,590.104126 
	C903.572449,590.062256 902.980652,589.664124 902.826721,582.419861 
	C902.611023,572.269348 902.681885,562.112549 902.663513,551.958313 
	C902.642212,540.138855 902.656799,528.319397 902.655640,515.999878 
z"/>
<path fill="#000000" opacity="1.000000" stroke="none" 
	d="
M942.344666,420.989502 
	C942.351013,434.311218 942.350525,434.269257 929.470581,434.415924 
	C922.493164,434.495361 915.512817,434.642426 908.543030,434.960175 
	C904.504089,435.144287 902.491211,433.813263 902.240051,429.459229 
	C901.703064,420.152313 901.872986,410.850403 901.866943,401.544861 
	C901.864624,397.989716 903.620056,396.564178 907.201294,396.706970 
	C917.658508,397.123779 928.121887,397.421783 938.585571,397.616577 
	C941.412415,397.669220 942.377380,398.861298 942.345581,401.539429 
	C942.270508,407.855835 942.335571,414.173920 942.344666,420.989502 
z"/>
<path fill="#000000" opacity="1.000000" stroke="none" 
	d="
M308.276978,495.834595 
	C313.768738,501.796417 313.744537,503.528748 308.413361,509.013153 
	C296.807007,520.952881 285.174316,532.867310 273.625702,544.862610 
	C269.907166,548.724976 265.382721,550.359497 260.181702,550.349121 
	C235.534760,550.300110 210.887894,550.218567 186.241089,550.123047 
	C182.995361,550.110474 180.294418,549.533936 180.317688,545.235291 
	C180.465546,517.928101 180.527679,490.620422 180.599854,463.312866 
	C180.623093,454.524109 180.902573,454.090973 189.869324,454.037231 
	C212.185013,453.903442 234.501572,453.922760 256.817535,453.823273 
	C264.205994,453.790344 270.151276,456.297180 275.321350,461.875488 
	C285.958099,473.352173 297.085693,484.373962 308.276978,495.834595 
z"/>
</svg>